<svg width="220" height="163" viewBox="0 0 220 163" fill="none" xmlns="http://www.w3.org/2000/svg">
<path d="M163 61V1H1V162H163V111.5" stroke="white" stroke-width="2"/>
<path d="M33.152 94.808H30.752V72.28H39.648C41.6747 72.28 43.232 72.8133 44.32 73.88C45.4293 74.9253 45.984 76.4827 45.984 78.552C45.984 80.5147 45.4293 82.0293 44.32 83.096C43.232 84.1627 41.6747 84.696 39.648 84.696H33.152V94.808ZM33.152 74.52V82.456H39.648C40.9493 82.4773 41.9307 82.1467 42.592 81.464C43.2533 80.7813 43.584 79.8107 43.584 78.552C43.584 77.208 43.2427 76.2053 42.56 75.544C41.8773 74.8613 40.9067 74.52 39.648 74.52H33.152ZM54.7395 75.608V71.736H58.6115V75.608H54.7395ZM58.6115 92.76H65.7475V95H49.0115V92.76H56.2115V80.504H50.5795V78.264H58.6115V92.76ZM68.487 86.84C68.487 85.1547 68.807 83.672 69.447 82.392C70.1083 81.112 71.015 80.1093 72.167 79.384C73.319 78.6373 74.6417 78.264 76.135 78.264C77.607 78.264 78.9083 78.6373 80.039 79.384C81.1697 80.1093 82.055 81.112 82.695 82.392C83.335 83.672 83.655 85.1547 83.655 86.84C83.655 88.504 83.335 89.9867 82.695 91.288C82.0763 92.568 81.2123 93.5813 80.103 94.328C78.9937 95.0533 77.7137 95.416 76.263 95.416C74.727 95.416 73.3723 95.0533 72.199 94.328C71.047 93.5813 70.1403 92.568 69.479 91.288C68.8177 89.9867 68.487 88.504 68.487 86.84ZM76.263 93.176C77.2443 93.176 78.1083 92.9093 78.855 92.376C79.6017 91.8213 80.1883 91.0747 80.615 90.136C81.0417 89.176 81.255 88.0773 81.255 86.84C81.255 85.6027 81.031 84.5147 80.583 83.576C80.1563 82.616 79.559 81.8693 78.791 81.336C78.023 80.7813 77.1377 80.504 76.135 80.504C75.0897 80.504 74.1617 80.7813 73.351 81.336C72.5617 81.8693 71.943 82.616 71.495 83.576C71.0683 84.5147 70.8657 85.6027 70.887 86.84C70.9083 88.0773 71.143 89.176 71.591 90.136C72.0603 91.0747 72.7003 91.8213 73.511 92.376C74.3217 92.9093 75.239 93.176 76.263 93.176ZM88.5705 95V79H102.107L102.139 95H99.7385L99.7065 81.24H90.9705V95H88.5705ZM106.67 86.84C106.67 85.0693 106.969 83.544 107.566 82.264C108.185 80.984 109.049 80.0027 110.158 79.32C111.289 78.616 112.611 78.264 114.126 78.264C115.577 78.264 116.835 78.616 117.902 79.32C118.969 80.024 119.79 81.0373 120.366 82.36C120.942 83.6613 121.23 85.208 121.23 87V87.256H109.038C109.145 89.0693 109.678 90.5093 110.638 91.576C111.598 92.6427 112.835 93.176 114.35 93.176C115.715 93.176 116.793 92.8347 117.582 92.152C118.393 91.4693 118.862 90.5093 118.99 89.272H121.23C121.017 91.2347 120.313 92.7493 119.118 93.816C117.945 94.8827 116.355 95.416 114.35 95.416C112.793 95.416 111.438 95.0747 110.286 94.392C109.134 93.688 108.238 92.696 107.598 91.416C106.979 90.1147 106.67 88.5893 106.67 86.84ZM114.126 80.504C112.761 80.4613 111.641 80.8453 110.766 81.656C109.913 82.4667 109.433 83.5867 109.326 85.016H118.734C118.649 83.672 118.19 82.5947 117.358 81.784C116.526 80.9733 115.449 80.5467 114.126 80.504ZM125.858 86.84C125.858 85.0693 126.156 83.544 126.754 82.264C127.372 80.984 128.236 80.0027 129.346 79.32C130.476 78.616 131.799 78.264 133.314 78.264C134.764 78.264 136.023 78.616 137.09 79.32C138.156 80.024 138.978 81.0373 139.554 82.36C140.13 83.6613 140.418 85.208 140.418 87V87.256H128.226C128.332 89.0693 128.866 90.5093 129.826 91.576C130.786 92.6427 132.023 93.176 133.538 93.176C134.903 93.176 135.98 92.8347 136.77 92.152C137.58 91.4693 138.05 90.5093 138.178 89.272H140.418C140.204 91.2347 139.5 92.7493 138.306 93.816C137.132 94.8827 135.543 95.416 133.538 95.416C131.98 95.416 130.626 95.0747 129.474 94.392C128.322 93.688 127.426 92.696 126.786 91.416C126.167 90.1147 125.858 88.5893 125.858 86.84ZM133.314 80.504C131.948 80.4613 130.828 80.8453 129.954 81.656C129.1 82.4667 128.62 83.5867 128.514 85.016H137.922C137.836 83.672 137.378 82.5947 136.546 81.784C135.714 80.9733 134.636 80.5467 133.314 80.504ZM148.053 95V79H160.757V81.4H150.453V95H148.053ZM190.748 74.136C189.383 74.1573 188.252 74.5733 187.356 75.384C186.481 76.1947 186.044 77.2293 186.044 78.488H183.804C183.804 77.1653 184.103 76.0027 184.7 75C185.297 73.976 186.119 73.176 187.164 72.6C188.209 72.024 189.404 71.736 190.748 71.736C192.135 71.736 193.361 71.992 194.428 72.504C195.495 73.016 196.327 73.7307 196.924 74.648C197.521 75.5653 197.809 76.6213 197.788 77.816C197.788 78.8613 197.521 79.832 196.988 80.728C196.476 81.624 195.783 82.36 194.908 82.936C196.017 83.4907 196.903 84.2693 197.564 85.272C198.247 86.2747 198.588 87.3947 198.588 88.632C198.588 89.976 198.257 91.1707 197.596 92.216C196.956 93.24 196.06 94.0507 194.908 94.648C193.756 95.224 192.433 95.512 190.94 95.512C189.468 95.512 188.145 95.192 186.972 94.552C185.799 93.8907 184.881 93.0053 184.22 91.896C183.559 90.7867 183.249 89.56 183.292 88.216H185.564C185.564 89.7093 186.044 90.904 187.004 91.8C187.985 92.6747 189.297 93.112 190.94 93.112C192.561 93.112 193.841 92.7067 194.78 91.896C195.719 91.0853 196.188 89.9973 196.188 88.632C196.188 87.7787 195.964 87.0107 195.516 86.328C195.068 85.6453 194.46 85.1013 193.692 84.696C192.924 84.2907 192.06 84.088 191.1 84.088H188.828V81.944H190.908C191.74 81.944 192.497 81.7627 193.18 81.4C193.863 81.016 194.396 80.5147 194.78 79.896C195.185 79.256 195.388 78.5627 195.388 77.816C195.388 76.728 194.951 75.8427 194.076 75.16C193.223 74.4773 192.113 74.136 190.748 74.136ZM206.512 92.6H217.936V95H202.448V93.272C204.282 91.352 205.893 89.7093 207.28 88.344C208.688 86.9787 209.872 85.784 210.832 84.76C211.813 83.7147 212.592 82.7653 213.168 81.912C213.744 81.0587 214.106 80.184 214.256 79.288C214.448 78.2853 214.373 77.3893 214.032 76.6C213.712 75.8107 213.2 75.192 212.496 74.744C211.792 74.296 210.949 74.0933 209.968 74.136C208.645 74.1573 207.589 74.552 206.8 75.32C206.032 76.0667 205.648 77.0693 205.648 78.328H203.248C203.248 77.0267 203.525 75.8853 204.08 74.904C204.656 73.9227 205.445 73.1547 206.448 72.6C207.472 72.024 208.645 71.736 209.968 71.736C211.504 71.736 212.816 72.0987 213.904 72.824C215.013 73.528 215.824 74.4773 216.336 75.672C216.848 76.8667 216.965 78.2107 216.688 79.704C216.517 80.6 216.144 81.5387 215.568 82.52C214.992 83.48 214.288 84.4507 213.456 85.432C212.645 86.4133 211.792 87.3627 210.896 88.28C210.021 89.176 209.189 89.9973 208.4 90.744C207.632 91.4907 207.002 92.1093 206.512 92.6Z" fill="white"/>
</svg>
